<svg width="20" height="24" viewBox="0 0 20 24" fill="none" xmlns="http://www.w3.org/2000/svg">
<g clip-path="url(#clip0)">
<rect x="-0.00012207" y="3" width="19.5465" height="19" rx="8" fill="white"/>
<path d="M9.77698 6.6094C7.00207 6.6094 4.76382 9.01409 4.76382 11.9953C4.76382 14.9766 7.00207 17.3813 9.77698 17.3813C12.5519 17.3813 14.7901 14.9766 14.7901 11.9953C14.7901 9.01409 12.5519 6.6094 9.77698 6.6094ZM9.77698 15.4969C7.98376 15.4969 6.51777 13.9266 6.51777 11.9953C6.51777 10.0641 7.9794 8.49378 9.77698 8.49378C11.5746 8.49378 13.0362 10.0641 13.0362 11.9953C13.0362 13.9266 11.5702 15.4969 9.77698 15.4969ZM16.1645 6.38909C16.1645 7.08753 15.6409 7.64534 14.9952 7.64534C14.3451 7.64534 13.8259 7.08284 13.8259 6.38909C13.8259 5.69534 14.3495 5.13284 14.9952 5.13284C15.6409 5.13284 16.1645 5.69534 16.1645 6.38909ZM19.4848 7.66409C19.4106 5.98128 19.0528 4.49065 17.9054 3.26253C16.7622 2.0344 15.3748 1.65002 13.8084 1.56565C12.1941 1.46721 7.35548 1.46721 5.74115 1.56565C4.17917 1.64534 2.79172 2.02971 1.64424 3.25784C0.496755 4.48596 0.143347 5.97659 0.0648119 7.6594C-0.0268123 9.39378 -0.0268123 14.5922 0.0648119 16.3266C0.138984 18.0094 0.496755 19.5 1.64424 20.7282C2.79172 21.9563 4.17481 22.3407 5.74115 22.425C7.35548 22.5235 12.1941 22.5235 13.8084 22.425C15.3748 22.3453 16.7622 21.961 17.9054 20.7282C19.0485 19.5 19.4062 18.0094 19.4848 16.3266C19.5764 14.5922 19.5764 9.39847 19.4848 7.66409ZM17.3992 18.1875C17.0589 19.1063 16.4001 19.8141 15.5406 20.1844C14.2535 20.7328 11.1993 20.6063 9.77698 20.6063C8.35462 20.6063 5.29612 20.7282 4.01338 20.1844C3.15822 19.8188 2.4994 19.111 2.15472 18.1875C1.64424 16.8047 1.76204 13.5235 1.76204 11.9953C1.76204 10.4672 1.6486 7.18128 2.15472 5.80315C2.49503 4.8844 3.15386 4.17659 4.01338 3.80628C5.30048 3.25784 8.35462 3.3844 9.77698 3.3844C11.1993 3.3844 14.2578 3.26253 15.5406 3.80628C16.3957 4.1719 17.0546 4.87971 17.3992 5.80315C17.9097 7.18597 17.7919 10.4672 17.7919 11.9953C17.7919 13.5235 17.9097 16.8094 17.3992 18.1875Z" fill="url(#paint0_linear)"/>
</g>
<defs>
<linearGradient id="paint0_linear" x1="16.8805" y1="2.50003" x2="-0.425435" y2="21.4938" gradientUnits="userSpaceOnUse">
<stop stop-color="#285AEB" stop-opacity="0.9"/>
<stop offset="0.248204" stop-color="#D6249F" stop-opacity="0.6"/>
<stop offset="0.725389" stop-color="#FD5949" stop-opacity="0.77"/>
<stop offset="0.881131" stop-color="#EDE15F" stop-opacity="0.88"/>
<stop offset="0.98912" stop-color="#FDF497" stop-opacity="0.81"/>
</linearGradient>
<clipPath id="clip0">
<rect width="19.5465" height="24" fill="white" transform="translate(-0.00012207)"/>
</clipPath>
</defs>
</svg>
