<svg width="22" height="24" viewBox="0 0 22 24" fill="none" xmlns="http://www.w3.org/2000/svg">
<g clip-path="url(#clip0)">
<rect x="1.99988" y="4" width="19" height="17" rx="8" fill="white"/>
<path d="M20.9936 5.81639C20.7537 4.7078 20.0469 3.8347 19.1494 3.53841C17.5227 3 10.9998 3 10.9998 3C10.9998 3 4.47699 3 2.85025 3.53841C1.95279 3.83475 1.24596 4.7078 1.00607 5.81639C0.57019 7.82578 0.57019 12.0182 0.57019 12.0182C0.57019 12.0182 0.57019 16.2106 1.00607 18.22C1.24596 19.3286 1.95279 20.1653 2.85025 20.4616C4.47699 21 10.9998 21 10.9998 21C10.9998 21 17.5227 21 19.1494 20.4616C20.0469 20.1653 20.7537 19.3286 20.9936 18.22C21.4295 16.2106 21.4295 12.0182 21.4295 12.0182C21.4295 12.0182 21.4295 7.82578 20.9936 5.81639ZM8.86648 15.8246V8.2118L14.3183 12.0183L8.86648 15.8246Z" fill="#FF0000"/>
</g>
<defs>
<clipPath id="clip0">
<rect width="22" height="24" fill="white" transform="translate(-0.00012207)"/>
</clipPath>
</defs>
</svg>
