<svg width="22" height="24" viewBox="0 0 22 24" fill="none" xmlns="http://www.w3.org/2000/svg">
<path d="M1 10.5C1 5.25329 5.25329 1 10.5 1C15.7467 1 20 5.25329 20 10.5V15.1429C20 19.4822 16.4822 23 12.1429 23H10.4286C5.22132 23 1 18.7787 1 13.5714V10.5Z" fill="white"/>
<path d="M21.6562 12C21.6562 5.57812 16.8867 0.375 11 0.375C5.11328 0.375 0.34375 5.57812 0.34375 12C0.34375 17.8022 4.24059 22.6116 9.33496 23.4844V15.3605H6.62793V12H9.33496V9.43875C9.33496 6.52547 10.9248 4.91625 13.3598 4.91625C14.526 4.91625 15.7455 5.14313 15.7455 5.14313V8.0025H14.4014C13.078 8.0025 12.665 8.89875 12.665 9.81797V12H15.6204L15.1478 15.3605H12.665V23.4844C17.7594 22.6116 21.6562 17.8022 21.6562 12Z" fill="#39559A"/>
</svg>
