<svg width="75" height="82" viewBox="0 0 75 82" fill="none" xmlns="http://www.w3.org/2000/svg">
<path d="M8.20312 34.3477C8.20312 19.9068 19.9097 8.2002 34.3506 8.2002H38.1579C54.622 8.2002 67.9688 21.547 67.9688 38.011V49.1405C67.9688 66.318 54.0437 80.2431 36.8662 80.2431V80.2431C21.036 80.2431 8.20312 67.4101 8.20312 51.5799V34.3477Z" fill="white"/>
<path d="M73.8281 41C73.8281 19.0586 57.5684 1.28125 37.5 1.28125C17.4316 1.28125 1.17188 19.0586 1.17188 41C1.17188 60.8241 14.4565 77.2562 31.8237 80.2383V52.4816H22.5952V41H31.8237V32.2491C31.8237 22.2954 37.2437 16.7972 45.5449 16.7972C49.5205 16.7972 53.6777 17.5723 53.6777 17.5723V27.3419H49.0957C44.584 27.3419 43.1763 30.4041 43.1763 33.5447V41H53.2515L51.6401 52.4816H43.1763V80.2383C60.5435 77.2562 73.8281 60.8241 73.8281 41Z" fill="#39559A"/>
</svg>
