<svg width="69" height="74" viewBox="0 0 69 74" fill="none" xmlns="http://www.w3.org/2000/svg">
<rect x="4.92847" y="3.94678" width="60.1286" height="64.1333" rx="8" fill="white"/>
<path d="M34.5077 18.0273C24.7176 18.0273 16.8209 26.4982 16.8209 37C16.8209 47.5018 24.7176 55.9727 34.5077 55.9727C44.2978 55.9727 52.1945 47.5018 52.1945 37C52.1945 26.4982 44.2978 18.0273 34.5077 18.0273ZM34.5077 49.3347C28.1811 49.3347 23.009 43.8031 23.009 37C23.009 30.1969 28.1657 24.6653 34.5077 24.6653C40.8497 24.6653 46.0064 30.1969 46.0064 37C46.0064 43.8031 40.8343 49.3347 34.5077 49.3347V49.3347ZM57.0433 17.2513C57.0433 19.7116 55.1962 21.6766 52.918 21.6766C50.6244 21.6766 48.7926 19.6951 48.7926 17.2513C48.7926 14.8074 50.6398 12.826 52.918 12.826C55.1962 12.826 57.0433 14.8074 57.0433 17.2513ZM68.7576 21.7426C68.4959 15.8147 67.2336 10.5638 63.1852 6.23753C59.1522 1.9113 54.2572 0.557291 48.731 0.260069C43.0355 -0.0866897 25.9645 -0.0866897 20.269 0.260069C14.7582 0.540779 9.86319 1.89479 5.81478 6.22102C1.76637 10.5472 0.51952 15.7982 0.242443 21.7261C-0.0808143 27.8357 -0.0808143 46.1478 0.242443 52.2574C0.504127 58.1853 1.76637 63.4362 5.81478 67.7625C9.86319 72.0887 14.7428 73.4427 20.269 73.7399C25.9645 74.0867 43.0355 74.0867 48.731 73.7399C54.2572 73.4592 59.1522 72.1052 63.1852 67.7625C67.2182 63.4362 68.4805 58.1853 68.7576 52.2574C69.0808 46.1478 69.0808 27.8522 68.7576 21.7426V21.7426ZM61.3996 58.8128C60.1989 62.0492 57.8746 64.5426 54.8421 65.847C50.3011 67.779 39.5259 67.3331 34.5077 67.3331C29.4895 67.3331 18.6989 67.7625 14.1733 65.847C11.1562 64.5591 8.83185 62.0657 7.61578 58.8128C5.81478 53.9416 6.2304 42.383 6.2304 37C6.2304 31.617 5.83017 20.0418 7.61578 15.1872C8.81645 11.9508 11.1408 9.45744 14.1733 8.15296C18.7143 6.22102 29.4895 6.66685 34.5077 6.66685C39.5259 6.66685 50.3165 6.23753 54.8421 8.15296C57.8592 9.44092 60.1835 11.9343 61.3996 15.1872C63.2006 20.0584 62.785 31.617 62.785 37C62.785 42.383 63.2006 53.9582 61.3996 58.8128Z" fill="url(#paint0_linear)"/>
<defs>
<linearGradient id="paint0_linear" x1="59.5695" y1="3.55154" x2="-1.38409" y2="70.5535" gradientUnits="userSpaceOnUse">
<stop stop-color="#285AEB"/>
<stop offset="0.248204" stop-color="#D6249F"/>
<stop offset="0.725389" stop-color="#FD5949"/>
<stop offset="0.881131" stop-color="#EDE15F" stop-opacity="0.88"/>
<stop offset="0.98912" stop-color="#FDF497"/>
</linearGradient>
</defs>
</svg>
